name processed_emg_signals
nRows=29
nColumns=7
 
endheader
time	LGLTMED	LRF	LADDLONG	LBF	LTA	LGM
3.2251999999999974	0.0267032869160175	-0.030060276389122	-0.0132753513753414	0.0053406553342938	-0.0422674939036369	0.007171737961471
3.2351999999999976	-0.0065613817423582	-0.0346379801630973	0.0038147531449794	0.0123598054051399	0.1847867518663406	0.0190737750381231
3.2451999999999974	0.012054624967277	-0.041657131165266	0.026398105546832	-0.0028992164880037	-0.022735945880413	0.0154116097837686
3.2551999999999977	0.0090028205886483	-0.0431830361485481	-0.0038147578015923	0.0032043922692537	0.0297550894320011	0.0126649858430027
3.2651999999999974	0.0053406553342938	-0.0221255831420421	-0.0050354795530438	0.0169375129044055	-0.0273136515170335	0.0148012489080429
3.2751999999999977	0.0248722024261951	0.0233463011682033	-0.0331120789051055	0.0135805271565914	-0.0560006126761436	-0.0038147578015923
3.2851999999999975	0.0093080010265111	0.007171737961471	-0.0294499136507511	0.0013733096420764	-0.0190737806260585	0.0016784900799393
3.2951999999999977	0.0062561966478824	-0.0517280846834182	-0.0218204036355018	0.0035095727071166	0.0032043922692537	0.0035095727071166
3.3051999999999975	0.0157167911529541	0.0019836705178022	-0.0218204036355018	-0.0050354795530438	0.0352483391761779	0.0093080010265111
3.3151999999999977	-0.0028992164880037	0.0260929241776466	0.0132753467187285	0.0309758111834526	-0.0346379801630973	0.0114442640915513
3.3251999999999975	0.0022888509556651	-0.0498970039188861	0.0245670229196548	0.0050354748964309	0.0053406553342938	0.0044251140207052
3.3351999999999977	-0.0007629534229636	0.0123598054051399	-0.0361638851463794	0.007171737961471	-0.0437933951616287	0.0053406553342938
3.3451999999999975	-0.0004577729851007	-0.0059510208666324	-0.0389105081558227	0.009613181464374	-0.0025940360501408	0.0038147531449794
3.3551999999999973	0.0212100371718406	-0.0288395546376705	0.0627145767211914	0.0132753467187285	0.0151064293459057	0.0062561966478824
3.3651999999999975	0.0129701662808656	-0.0126649904996156	0.1200885027647018	0.0090028205886483	-0.0025940360501408	0.0074769183993339
3.3751999999999973	0.0062561966478824	-0.0001525925472378	0.0566109679639339	-0.0111390883103013	-0.03677424415946	0.007171737961471
3.3851999999999975	0.0032043922692537	-0.0270084701478481	-0.0175478775054216	0.0053406553342938	0.0022888509556651	-0.0025940360501408
3.3951999999999973	0.0010681292042136	-0.0151064340025186	-0.0532539896667003	-0.0025940360501408	0.0538643449544906	0.007171737961471
3.4051999999999976	0.007171737961471	0.0172426924109458	-0.062714584171772	0.02059967815876	-0.0352483429014682	0.0257877446711063
3.4151999999999973	0.0166323315352201	-0.0138857122510671	-0.0489814616739749	-0.0077821034938097	-0.0099183665588498	0.0010681292042136
3.4251999999999976	0.0157167911529541	-0.0080872839316725	-0.027618832886219	0.000152587890625	0.0102235423400998	0.0611886754631996
3.4351999999999974	-0.0074769230559468	-0.0135805318132042	-0.0148012535646557	-0.009308005683124	-0.0294499136507511	-0.0138857122510671
3.4451999999999976	-0.0132753513753414	-0.0035095773637294	-0.0169375166296958	0.0193789564073085	-0.0239566676318645	0.0190737750381231
3.4551999999999974	0.0294499099254608	-0.0102235469967126	-0.0083924643695354	-0.0059510208666324	-0.0471503809094429	0.0090028205886483
3.4651999999999976	-0.0065613817423582	-0.0108339078724384	-0.0007629534229636	-0.0022888556122779	-0.0566109716892242	-0.0239566676318645
3.4751999999999974	-0.009308005683124	-0.0334172621369361	-0.0013733142986893	-0.030060276389122	-0.0148012535646557	0.0340276174247264
3.4851999999999976	0.0016784900799393	-0.0190737806260585	-0.0056458404287695	0.0041199335828423	-0.0047302991151809	0.0105287227779626
3.4951999999999974	0.0724803507328033	0.0074769183993339	0.0077820988371968	-0.0102235469967126	-0.1100175529718399	-0.009308005683124
3.505199999999997	0.0135805271565914	0.0474555566906929	-0.0169375166296958	0.0114442640915513	0.0584420524537563	0.2021820396184921
